# xmcd CD database file
#
# Track frame offsets:
#	150
#	20250
#	41775
#	61275
#
# Disc length: 1082 seconds
#
# Revision: 0
# Processed by: cddbd v1.5.1PL0 Copyright (c) Steve Scherf et al.
# Submitted via: CDex 1.51
#
DISCID=2c043804
DTITLE=島谷ひとみ - いつの日にか
DYEAR=2002
DGENRE=JPop
TTITLE0=いつの日にか・・・
TTITLE1=解放区（2002オリジナル・バージョン）
TTITLE2=市場に行こう（メランコリック・バージョン）
TTITLE3=いつの日にか・・・（INSTRUMENTAL）
EXTD=YEAR: 2002
EXTT0=
EXTT1=
EXTT2=
EXTT3=
PLAYORDER=
